{"glyphs":{"$":{"x_min":0,"x_max":572,"ha":572,"o":"m 253 -102 l 253 -12 q 131 -9 50 46 l 85 139 q 178 88 253 83 l 253 297 q 211 313 185 326 q 159 339 129 362 q 69 406 69 488 q 69 569 120 622 q 172 675 253 687 l 253 768 l 329 768 l 329 688 q 425 678 498 630 l 458 543 q 377 584 329 592 l 329 389 q 371 372 396 358 q 422 344 452 320 q 512 273 512 190 q 512 106 462 57 q 411 8 329 -6 l 329 -102 z m 184 508 q 184 456 253 421 l 253 587 q 221 578 202 558 q 184 537 184 508 z m 329 91 q 398 114 398 172 q 398 230 329 264 z"},"?":{"x_min":0,"x_max":493,"ha":493,"o":"m 251 207 l 144 224 q 144 286 164 330 q 183 375 212 398 q 240 422 268 442 q 335 488 335 547 q 335 595 306 620 q 276 646 228 646 q 154 646 98 570 l 46 626 q 117 732 246 732 q 345 732 397 683 q 449 634 449 545 q 449 502 435 469 q 421 436 400 418 q 378 399 352 378 q 327 358 306 339 q 284 320 268 286 q 253 252 251 207 z m 201 -11 q 176 -11 159 4 q 142 20 142 51 q 142 116 210 116 q 234 116 250 100 q 266 85 266 55 q 266 -11 201 -11 z"},"<":{"x_min":0,"x_max":527,"ha":527,"o":"m 50 272 l 82 351 l 423 544 l 467 471 l 169 303 l 465 136 l 433 56 z"},"'":{"x_min":0,"x_max":242,"ha":242,"o":"m 149 749 l 100 525 l 52 533 q 50 565 50 599 q 50 736 64 758 q 71 768 90 768 q 130 768 149 749 z"},"=":{"x_min":0,"x_max":546,"ha":546,"o":"m 472 349 l 64 349 l 64 433 l 486 433 z m 64 266 l 486 266 l 472 182 l 64 182 z"},"a":{"x_min":0,"x_max":609,"ha":609,"o":"m 504 501 l 504 127 q 504 92 512 80 q 520 69 551 69 l 555 6 q 530 -3 502 -3 q 424 -3 409 68 q 356 -12 252 -12 q 149 -12 98 65 q 48 142 48 264 q 48 385 117 466 q 186 546 302 546 q 349 546 412 532 q 474 517 504 501 z m 396 209 l 396 449 q 357 462 307 462 q 231 462 196 407 q 162 352 162 255 q 162 158 192 115 q 221 72 277 72 q 333 72 364 112 q 396 151 396 209 z"},"L":{"x_min":0,"x_max":525,"ha":525,"o":"m 108 0 l 108 720 l 222 720 l 222 96 l 495 96 l 481 0 z"},"3":{"x_min":0,"x_max":526,"ha":526,"o":"m 24 37 l 55 109 q 131 72 202 72 q 274 72 308 106 q 341 141 341 194 q 341 260 307 286 q 290 300 274 309 q 257 318 232 321 q 189 326 152 326 l 138 403 q 239 403 287 426 q 335 449 335 506 q 335 563 302 584 q 270 606 224 606 q 142 606 68 569 l 37 641 q 61 659 126 674 q 191 690 232 690 q 274 690 309 681 q 344 672 376 652 q 409 633 429 597 q 449 561 449 521 q 449 481 439 454 q 429 427 416 412 q 404 397 387 386 q 364 370 347 365 q 390 348 413 321 q 455 272 455 194 q 455 91 388 40 q 321 -12 216 -12 q 112 -12 24 37 z"},"J":{"x_min":0,"x_max":342,"ha":342,"o":"m -49 -105 q -15 -126 30 -126 q 75 -126 98 -92 q 120 -58 120 -3 l 120 720 l 234 720 l 234 -3 q 234 -116 185 -169 q 136 -222 34 -222 q 1 -222 -29 -213 q -59 -204 -73 -194 l -87 -185 z"},"V":{"x_min":0,"x_max":666,"ha":666,"o":"m 252 27 l 5 713 l 122 727 l 333 115 l 544 727 l 661 713 l 406 7 q 394 3 354 -2 q 315 -7 289 -7 q 263 -7 252 27 z"},"\"":{"x_min":0,"x_max":382,"ha":382,"o":"m 289 749 l 240 525 l 192 533 q 190 565 190 599 q 190 736 204 758 q 211 768 230 768 q 270 768 289 749 z m 149 749 l 100 525 l 52 533 q 50 565 50 599 q 50 736 64 758 q 71 768 90 768 q 130 768 149 749 z"},"7":{"x_min":0,"x_max":490,"ha":490,"o":"m 76 0 q 76 70 103 144 q 130 218 169 278 q 208 338 247 393 q 340 524 340 584 l 45 584 l 45 678 l 455 678 l 455 624 q 455 520 362 384 q 323 327 284 268 q 245 209 218 138 q 191 68 191 0 z"},"S":{"x_min":0,"x_max":572,"ha":572,"o":"m 50 46 l 85 139 q 188 83 257 83 q 326 83 362 110 q 398 137 398 184 q 398 236 352 267 q 326 284 308 292 q 291 300 254 316 q 218 331 198 340 q 178 350 150 368 q 123 387 108 406 q 69 453 69 520 q 69 613 134 671 q 198 729 296 729 q 356 729 412 709 q 468 689 498 669 l 458 582 q 360 633 305 633 q 250 633 217 606 q 184 580 184 537 q 184 489 227 460 q 263 436 310 416 q 357 396 376 387 q 396 378 426 358 q 456 338 472 318 q 512 266 512 196 q 512 95 440 42 q 369 -12 253 -12 q 137 -12 50 46 z"},"}":{"x_min":0,"x_max":392,"ha":392,"o":"m 60 -12 q 113 -12 143 18 q 173 49 173 94 q 173 112 164 157 q 155 202 155 209 q 155 300 225 332 q 155 364 155 455 q 155 462 164 507 q 173 552 173 570 q 173 615 143 646 q 113 676 60 676 l 88 754 q 193 754 238 704 q 284 654 284 578 q 284 549 276 500 q 267 451 267 427 q 267 369 347 358 l 347 306 q 267 295 267 237 q 267 213 276 164 q 284 115 284 86 q 284 10 238 -40 q 193 -90 88 -90 z"},"Z":{"x_min":0,"x_max":591,"ha":591,"o":"m 48 0 l 48 96 q 48 122 64 143 l 401 591 q 415 609 415 624 l 58 624 l 58 720 l 537 720 l 537 624 q 537 601 526 587 l 187 137 q 172 118 172 96 l 551 96 l 537 0 z"},"x":{"x_min":0,"x_max":522,"ha":522,"o":"m 503 0 l 387 0 l 256 183 l 131 0 l 15 0 l 197 265 l 15 520 l 120 539 l 264 336 l 402 539 l 507 520 l 323 253 z"},")":{"x_min":0,"x_max":348,"ha":348,"o":"m 50 669 l 79 752 q 173 723 230 615 q 288 507 288 340 q 288 172 236 60 q 183 -52 79 -90 l 50 -13 q 118 11 142 99 q 167 187 167 330 q 167 630 50 669 z"},"&":{"x_min":0,"x_max":707,"ha":707,"o":"m 529 513 l 529 414 l 652 414 l 614 328 l 529 328 l 529 189 q 529 96 581 96 q 585 96 620 103 l 637 5 q 586 -12 553 -12 q 477 -12 443 41 q 423 21 376 4 q 328 -12 271 -12 q 175 -12 114 40 q 54 93 54 192 q 54 313 143 363 l 143 367 q 125 381 103 406 q 61 456 61 528 q 61 617 126 674 q 192 732 287 732 q 382 732 471 690 l 434 604 q 363 636 308 636 q 254 636 218 609 q 181 582 181 525 q 181 414 332 414 l 415 414 l 445 499 z m 415 130 l 415 328 l 325 328 q 254 328 214 302 q 174 275 174 212 q 174 150 208 117 q 241 84 288 84 q 334 84 367 100 q 400 115 415 130 z"},"_":{"x_min":0,"x_max":452,"ha":452,"o":"m 15 -122 l 437 -122 l 426 -186 l 15 -186 z"},"v":{"x_min":0,"x_max":550,"ha":550,"o":"m 227 0 l 15 520 l 120 539 l 219 286 q 273 141 275 120 l 282 120 q 284 140 339 286 l 430 539 l 535 520 l 323 0 z"},"O":{"x_min":0,"x_max":754,"ha":754,"o":"m 354 -12 q 227 -12 144 80 q 60 173 60 350 q 60 528 145 630 q 230 732 400 732 q 528 732 611 640 q 694 549 694 372 q 694 194 609 91 q 524 -12 354 -12 z m 373 84 q 486 84 532 158 q 577 231 577 373 q 577 515 526 576 q 474 636 382 636 q 267 636 222 557 q 181 484 181 346 q 181 207 232 146 q 283 84 373 84 z"},"(":{"x_min":0,"x_max":348,"ha":348,"o":"m 298 -7 l 269 -90 q 175 -61 118 47 q 60 155 60 322 q 60 490 112 602 q 165 714 269 752 l 298 675 q 230 651 206 563 q 181 475 181 332 q 181 32 298 -7 z"},"C":{"x_min":0,"x_max":662,"ha":662,"o":"m 60 363 q 60 589 206 682 q 283 732 395 732 q 506 732 604 696 q 617 691 618 691 l 589 603 q 588 603 576 606 q 563 610 550 614 q 538 617 518 621 q 498 625 480 628 q 440 636 395 636 q 283 636 232 573 q 180 510 180 361 q 180 192 239 135 q 269 106 305 95 q 341 84 392 84 q 485 84 589 121 l 618 30 l 592 22 q 484 -12 370 -12 q 221 -12 140 83 q 60 178 60 363 z"},"W":{"x_min":0,"x_max":906,"ha":906,"o":"m 185 25 l 30 713 l 149 727 l 275 82 l 385 542 q 390 564 416 564 q 443 564 476 559 q 509 554 518 550 l 633 86 l 757 727 l 876 713 l 715 7 q 704 2 660 -2 q 616 -7 582 -7 q 547 -7 540 25 l 453 422 l 361 7 q 350 2 306 -2 q 261 -7 226 -7 q 191 -7 185 25 z"},"A":{"x_min":0,"x_max":668,"ha":668,"o":"m 25 0 l 262 705 q 270 726 297 726 q 308 726 404 720 l 643 0 l 526 0 l 461 210 l 208 210 l 144 0 z m 235 300 l 433 300 l 333 624 l 333 618 z"},"f":{"x_min":0,"x_max":378,"ha":378,"o":"m 120 -43 l 120 443 l 25 443 l 25 502 l 120 515 l 120 593 q 120 675 162 722 q 205 768 294 768 q 344 768 366 762 q 387 756 398 753 l 409 750 l 393 677 q 337 684 307 684 q 277 684 252 662 q 228 639 228 591 l 228 515 l 348 515 l 336 443 l 228 443 l 228 -45 q 228 -127 195 -174 q 162 -220 93 -220 q 54 -220 23 -209 l 36 -133 q 48 -136 67 -136 q 120 -136 120 -43 z"},"Q":{"x_min":0,"x_max":743,"ha":743,"o":"m 354 28 q 227 28 144 116 q 60 203 60 371 q 60 539 145 636 q 230 732 400 732 q 528 732 611 646 q 694 559 694 391 q 694 223 609 126 q 524 28 354 28 z m 373 124 q 486 124 532 192 q 577 260 577 392 q 577 524 526 580 q 474 636 382 636 q 270 636 226 568 q 181 501 181 370 q 181 238 232 181 q 283 124 373 124 z m 229 -4 q 385 -4 486 -48 q 529 -66 566 -84 q 654 -127 728 -127 l 707 -222 q 601 -222 520 -179 q 487 -161 451 -143 q 365 -100 229 -100 z"},"w":{"x_min":0,"x_max":800,"ha":800,"o":"m 593 0 l 497 0 l 407 249 l 402 249 l 303 0 l 207 0 l 15 520 l 120 539 l 205 286 q 212 268 233 200 q 254 131 255 120 l 262 120 q 264 140 319 286 l 354 385 l 300 534 l 412 534 l 495 286 q 544 132 545 120 l 552 120 q 553 130 602 286 l 680 539 l 785 520 z"},"-":{"x_min":0,"x_max":546,"ha":546,"o":"m 64 349 l 486 349 l 472 265 l 64 265 z"},"E":{"x_min":0,"x_max":599,"ha":599,"o":"m 108 0 l 108 720 l 525 720 l 525 627 l 222 627 l 222 409 l 485 409 l 485 322 l 222 322 l 222 93 l 545 93 l 531 0 z"},"s":{"x_min":0,"x_max":451,"ha":451,"o":"m 34 27 l 57 108 q 139 72 198 72 q 300 72 300 141 q 300 195 202 231 q 164 245 145 254 q 126 262 98 280 q 43 316 43 388 q 43 461 94 502 q 146 544 234 544 q 323 544 387 514 q 399 509 400 509 l 379 428 q 306 460 249 460 q 149 460 149 392 q 149 372 160 362 q 170 351 176 346 q 182 342 196 336 q 210 329 216 326 q 223 324 241 317 q 259 310 278 304 q 296 297 316 286 q 337 275 360 256 q 406 218 406 140 q 406 87 375 52 q 320 -12 191 -12 q 105 -12 34 27 z"},">":{"x_min":0,"x_max":527,"ha":527,"o":"m 477 328 l 445 249 l 104 56 l 60 129 l 358 297 l 62 464 l 94 544 z"},"l":{"x_min":0,"x_max":323,"ha":323,"o":"m 100 754 l 208 768 l 208 165 q 208 72 261 72 q 274 72 309 79 l 322 5 q 321 5 314 2 q 306 -1 296 -4 q 271 -12 235 -12 q 166 -12 133 34 q 100 81 100 163 z"},"8":{"x_min":0,"x_max":570,"ha":570,"o":"m 156 357 q 68 411 68 507 q 68 589 130 640 q 192 690 289 690 q 386 690 444 646 q 502 602 502 531 q 502 446 412 362 q 514 300 514 190 q 514 100 448 44 q 382 -12 280 -12 q 178 -12 117 37 q 56 86 56 172 q 56 257 156 357 z m 328 392 q 351 417 363 432 q 395 472 395 516 q 395 560 368 590 q 342 620 290 620 q 238 620 206 587 q 173 554 173 508 q 173 463 220 432 q 266 400 328 392 z m 237 322 q 211 294 197 276 q 160 230 160 180 q 160 129 190 95 q 220 61 279 61 q 338 61 374 98 q 409 136 409 187 q 409 238 359 275 q 309 312 237 322 z"},"\\":{"x_min":0,"x_max":415,"ha":415,"o":"m 39 720 l 117 720 l 373 -50 l 295 -50 z"},"e":{"x_min":0,"x_max":530,"ha":530,"o":"m 450 114 l 487 46 q 470 30 415 9 q 360 -12 297 -12 q 185 -12 116 56 q 48 124 48 260 q 48 335 72 392 q 96 450 134 482 q 212 546 298 546 q 383 546 434 502 q 484 459 484 396 q 484 313 405 260 q 326 208 152 208 q 152 162 190 117 q 229 72 304 72 q 380 72 450 114 z m 387 387 q 387 417 364 440 q 342 462 301 462 q 235 462 192 412 q 150 363 149 283 q 387 283 387 387 z"},"b":{"x_min":0,"x_max":604,"ha":604,"o":"m 100 36 l 100 754 l 208 768 l 208 514 q 274 546 349 546 q 439 546 498 476 q 556 406 556 274 q 556 142 490 65 q 425 -12 294 -12 q 245 -12 188 4 q 132 19 100 36 z m 208 434 l 208 85 q 242 72 296 72 q 378 72 410 124 q 442 175 442 274 q 442 374 410 418 q 377 462 317 462 q 257 462 208 434 z"},"%":{"x_min":0,"x_max":776,"ha":776,"o":"m 253 -12 l 184 16 l 534 729 l 603 700 z m 185 373 q 128 373 88 418 q 49 462 49 546 q 49 630 90 680 q 132 729 212 729 q 270 729 310 684 q 349 640 349 556 q 349 472 307 422 q 265 373 185 373 z m 196 442 q 265 442 265 558 q 265 660 202 660 q 133 660 133 544 q 133 442 196 442 z m 563 -12 q 506 -12 466 32 q 427 77 427 161 q 427 245 468 294 q 510 344 590 344 q 648 344 688 300 q 727 255 727 171 q 727 87 685 38 q 643 -12 563 -12 z m 574 57 q 643 57 643 173 q 643 275 580 275 q 511 275 511 159 q 511 57 574 57 z"},"m":{"x_min":0,"x_max":920,"ha":920,"o":"m 100 364 q 100 454 82 526 l 166 537 l 185 487 q 270 546 360 546 q 449 546 491 488 q 572 546 664 546 q 757 546 798 497 q 840 448 840 350 l 840 0 l 732 0 l 732 330 q 732 427 686 451 q 666 462 635 462 q 583 462 519 417 q 525 386 525 350 l 525 0 l 417 0 l 417 330 q 417 392 398 427 q 379 462 321 462 q 263 462 208 419 l 208 0 l 100 0 z"},"#":{"x_min":0,"x_max":833,"ha":833,"o":"m 674 411 l 532 411 l 507 268 l 688 268 l 674 190 l 493 190 l 460 0 l 371 0 l 405 190 l 280 190 l 244 -6 l 161 6 l 193 190 l 64 190 l 64 268 l 207 268 l 232 411 l 64 411 l 64 489 l 246 489 l 280 679 l 369 679 l 334 489 l 460 489 l 496 685 l 579 673 l 546 489 l 688 489 z m 320 411 l 294 268 l 420 268 l 446 411 z"},",":{"x_min":0,"x_max":219,"ha":219,"o":"m 54 -156 l 25 -119 q 69 -69 69 -22 q 69 -10 60 14 q 50 38 50 58 q 50 78 66 96 q 83 115 111 115 q 139 115 155 92 q 171 69 171 25 q 171 -19 139 -72 q 107 -124 54 -156 z"},"n":{"x_min":0,"x_max":619,"ha":619,"o":"m 100 364 q 100 454 82 526 l 166 537 l 185 487 q 269 546 357 546 q 539 546 539 350 l 539 0 l 431 0 l 431 330 q 431 462 326 462 q 265 462 208 419 l 208 0 l 100 0 z"},"h":{"x_min":0,"x_max":625,"ha":625,"o":"m 208 0 l 100 0 l 100 754 l 208 768 l 208 499 q 287 546 363 546 q 545 546 545 350 l 545 0 l 437 0 l 437 330 q 437 462 332 462 q 292 462 256 447 q 220 432 208 419 z"},"z":{"x_min":0,"x_max":506,"ha":506,"o":"m 459 0 l 51 0 l 51 81 l 325 450 l 50 450 l 64 534 l 446 534 l 446 450 l 174 84 l 445 84 z"},"B":{"x_min":0,"x_max":653,"ha":653,"o":"m 108 0 l 108 714 q 186 726 347 726 q 455 726 518 666 q 582 607 582 525 q 582 424 502 367 q 599 314 599 199 q 599 112 536 50 q 474 -12 348 -12 q 198 -12 108 0 z m 222 403 l 401 403 q 412 412 418 417 q 425 422 433 432 q 441 441 447 452 q 462 480 462 512 q 462 636 317 636 q 286 636 222 632 z m 222 84 q 304 78 334 78 q 414 78 446 110 q 479 142 479 202 q 479 261 446 292 q 412 322 331 322 l 222 322 z"},"K":{"x_min":0,"x_max":646,"ha":646,"o":"m 108 0 l 108 720 l 222 720 l 222 410 l 486 727 l 605 713 l 368 436 l 621 0 l 490 0 l 293 349 l 222 265 l 222 0 z"},"R":{"x_min":0,"x_max":662,"ha":662,"o":"m 108 0 l 108 714 q 186 726 347 726 q 455 726 513 664 q 571 603 571 507 q 571 441 539 390 q 507 340 447 314 l 514 158 q 532 117 559 94 q 586 72 617 72 l 601 -6 l 577 -6 q 531 -6 486 18 q 442 43 420 92 l 330 291 q 322 290 304 290 l 222 290 l 222 0 z m 222 378 l 390 378 q 404 383 421 402 q 451 436 451 500 q 451 636 323 636 q 279 636 222 631 z"},"T":{"x_min":0,"x_max":554,"ha":554,"o":"m 220 0 l 220 630 l 7 630 l 7 720 l 555 720 l 541 630 l 334 630 l 334 0 z"},"P":{"x_min":0,"x_max":621,"ha":621,"o":"m 108 0 l 108 714 q 186 726 347 726 q 455 726 513 664 q 571 603 571 498 q 571 393 502 324 q 432 255 312 255 q 288 255 222 257 l 222 0 z m 222 345 q 246 344 300 344 q 382 344 416 381 q 451 418 451 489 q 451 560 419 598 q 387 636 313 636 q 268 636 222 633 z"},"|":{"x_min":0,"x_max":292,"ha":292,"o":"m 108 -200 l 108 768 l 184 768 l 184 -200 z"},"t":{"x_min":0,"x_max":418,"ha":418,"o":"m 133 641 l 218 652 l 218 515 l 373 515 l 361 443 l 218 443 l 218 175 q 218 121 234 96 q 251 72 286 72 q 321 72 365 80 l 378 7 q 316 -12 258 -12 q 177 -12 144 31 q 110 74 110 153 l 110 443 l 35 443 l 35 505 l 110 515 z"},"M":{"x_min":0,"x_max":966,"ha":966,"o":"m 98 0 l 131 713 q 199 726 263 726 q 283 726 292 704 l 483 182 l 674 704 q 683 726 703 726 q 775 726 835 713 l 868 0 l 759 0 l 742 613 l 559 100 q 475 86 443 86 q 411 86 403 108 l 224 613 l 207 0 z"},"g":{"x_min":0,"x_max":604,"ha":604,"o":"m 504 498 l 504 32 q 504 -90 440 -155 q 377 -220 260 -220 q 188 -220 152 -210 q 117 -200 100 -194 q 84 -189 82 -189 l 105 -108 q 173 -133 225 -133 q 277 -133 303 -127 q 329 -121 352 -103 q 396 -69 396 45 l 396 61 q 378 33 341 10 q 304 -12 252 -12 q 166 -12 107 53 q 48 118 48 252 q 48 387 112 466 q 176 546 305 546 q 406 546 504 498 z m 396 207 l 396 449 q 360 462 312 462 q 231 462 196 414 q 162 367 162 262 q 162 157 192 114 q 222 72 278 72 q 335 72 366 112 q 396 152 396 207 z"},"j":{"x_min":0,"x_max":308,"ha":308,"o":"m 145 633 q 122 633 106 648 q 90 664 90 694 q 90 724 106 742 q 123 760 152 760 q 181 760 198 744 q 214 729 214 698 q 214 633 145 633 z m 100 -43 l 100 527 l 208 541 l 208 -45 q 208 -127 166 -174 q 123 -220 34 -220 q -7 -220 -39 -213 l -32 -132 q -19 -133 16 -133 q 52 -133 76 -112 q 100 -90 100 -43 z"},"i":{"x_min":0,"x_max":308,"ha":308,"o":"m 157 760 q 182 760 199 744 q 216 729 216 698 q 216 633 148 633 q 124 633 108 648 q 92 664 92 694 q 92 760 157 760 z m 100 0 l 100 527 l 208 541 l 208 0 z"},"y":{"x_min":0,"x_max":613,"ha":613,"o":"m 114 -108 q 182 -133 254 -133 q 326 -133 366 -100 q 405 -67 405 30 q 342 -12 258 -12 q 174 -12 127 44 q 80 101 80 184 l 80 527 l 188 541 l 188 204 q 188 72 293 72 q 374 72 405 117 l 405 527 l 513 541 l 513 32 q 513 -90 450 -155 q 386 -220 269 -220 q 197 -220 162 -210 q 126 -200 110 -194 q 93 -189 91 -189 z"},"@":{"x_min":0,"x_max":990,"ha":990,"o":"m 48 230 q 48 443 170 574 q 291 706 516 706 q 624 706 708 674 q 791 642 841 586 q 942 471 942 299 q 942 183 896 94 q 872 50 829 24 q 786 -3 729 -3 q 644 -3 602 59 l 598 59 q 579 33 540 11 q 500 -11 445 -11 q 350 -11 302 58 q 254 128 254 240 q 254 351 318 425 q 383 499 493 499 q 541 499 603 486 q 665 472 697 458 l 697 166 q 697 121 708 101 q 720 81 746 81 q 773 81 792 100 q 812 119 822 151 q 841 212 841 285 q 841 439 761 528 q 681 616 510 616 q 339 616 244 510 q 149 405 149 230 q 149 55 244 -36 q 340 -126 501 -126 q 546 -126 582 -117 l 604 -202 q 553 -216 495 -216 q 223 -216 108 -20 q 48 83 48 230 z m 365 233 q 365 76 472 76 q 527 76 558 110 q 589 144 589 192 l 589 401 q 549 412 503 412 q 365 412 365 233 z"},"p":{"x_min":0,"x_max":604,"ha":604,"o":"m 100 -212 l 100 391 q 100 447 82 526 l 166 537 l 184 493 q 258 546 338 546 q 440 546 498 472 q 556 397 556 270 q 556 142 494 65 q 432 -12 324 -12 q 259 -12 208 15 l 208 -212 z m 311 462 q 264 462 208 425 l 208 99 q 248 72 302 72 q 376 72 409 119 q 442 166 442 273 q 442 380 409 421 q 376 462 311 462 z"},"X":{"x_min":0,"x_max":683,"ha":683,"o":"m 33 0 l 268 372 l 47 714 l 169 726 l 350 438 l 523 726 l 643 714 l 418 358 l 650 0 l 520 0 l 337 291 l 162 0 z"},"*":{"x_min":0,"x_max":503,"ha":503,"o":"m 98 415 l 205 520 q 202 521 182 523 q 162 525 144 528 q 126 531 106 536 q 60 549 60 574 q 60 615 86 643 l 220 573 q 203 672 203 693 q 203 714 215 723 q 227 732 256 732 q 285 732 299 725 l 274 576 q 276 577 299 590 q 322 602 336 609 q 380 631 400 631 q 419 631 431 606 q 443 582 443 566 q 443 550 442 547 l 293 524 q 295 522 308 510 q 322 499 334 488 q 345 477 358 463 q 387 432 387 414 q 387 395 363 377 q 339 359 318 356 l 251 491 q 248 485 228 444 q 208 402 199 389 q 181 367 165 367 q 149 367 128 382 q 107 398 98 415 z"},"Y":{"x_min":0,"x_max":659,"ha":659,"o":"m 272 0 l 272 287 l 34 713 l 153 725 l 329 389 l 506 725 l 625 713 l 386 286 l 386 0 z"},"c":{"x_min":0,"x_max":503,"ha":503,"o":"m 297 546 q 395 546 477 504 l 447 431 q 379 462 319 462 q 239 462 200 409 q 162 356 162 276 q 162 72 320 72 q 379 72 443 106 l 478 36 q 401 -12 286 -12 q 172 -12 110 66 q 48 144 48 266 q 48 387 114 466 q 180 546 297 546 z"},"!":{"x_min":0,"x_max":284,"ha":284,"o":"m 97 230 l 86 728 q 139 742 174 742 q 216 742 216 696 q 216 624 203 466 q 190 309 174 217 z m 75 61 q 75 130 147 130 q 172 130 189 113 q 206 96 206 64 q 206 33 189 14 q 172 -5 142 -5 q 112 -5 94 12 q 75 29 75 61 z"},"/":{"x_min":0,"x_max":415,"ha":415,"o":"m 120 -50 l 42 -50 l 298 720 l 376 720 z"},"[":{"x_min":0,"x_max":333,"ha":333,"o":"m 60 754 l 269 754 l 288 676 l 162 676 l 162 -12 l 288 -12 l 269 -90 l 60 -90 z"},"6":{"x_min":0,"x_max":555,"ha":555,"o":"m 174 408 q 243 447 316 447 q 389 447 449 388 q 509 330 509 230 q 509 131 452 60 q 394 -12 284 -12 q 174 -12 112 60 q 51 133 51 270 q 51 376 80 458 q 110 540 161 590 q 265 690 418 690 l 426 605 q 368 605 322 589 q 276 573 250 552 q 225 530 208 500 q 181 454 174 408 z m 288 363 q 213 363 168 325 q 165 300 165 265 q 165 230 170 200 q 174 169 186 138 q 198 106 224 89 q 250 72 294 72 q 339 72 370 114 q 401 156 401 227 q 401 298 370 330 q 340 363 288 363 z"},"r":{"x_min":0,"x_max":451,"ha":451,"o":"m 100 364 q 100 454 82 526 l 166 537 l 191 472 q 254 546 333 546 q 386 546 416 521 q 445 496 445 450 q 445 404 430 369 l 344 380 q 344 425 336 444 q 327 462 300 462 q 274 462 248 441 q 223 420 208 394 l 208 0 l 100 0 z"},"2":{"x_min":0,"x_max":504,"ha":504,"o":"m 35 0 l 35 54 q 35 107 57 154 q 79 201 112 233 q 144 265 182 298 q 221 330 254 356 q 286 383 308 417 q 330 451 330 487 q 330 553 298 580 q 267 606 223 606 q 144 606 68 559 l 35 631 q 70 657 130 674 q 189 690 235 690 q 341 690 392 630 q 444 571 444 488 q 444 440 414 394 q 385 347 342 311 q 300 275 256 241 q 151 159 146 99 l 430 99 l 430 0 z"},"{":{"x_min":0,"x_max":392,"ha":392,"o":"m 60 306 l 60 358 q 140 369 140 427 q 140 451 132 500 q 123 549 123 578 q 123 654 168 704 q 214 754 319 754 l 347 676 q 294 676 264 646 q 234 615 234 570 q 234 552 243 507 q 252 462 252 455 q 252 364 182 332 q 252 300 252 209 q 252 202 243 157 q 234 112 234 94 q 234 49 264 18 q 294 -12 347 -12 l 319 -90 q 214 -90 168 -40 q 123 10 123 86 q 123 115 132 164 q 140 213 140 237 q 140 295 60 306 z"},"9":{"x_min":0,"x_max":544,"ha":544,"o":"m 130 -12 l 122 73 q 190 73 240 94 q 290 115 317 150 q 362 207 375 274 q 309 235 236 235 q 163 235 104 292 q 46 350 46 448 q 46 547 102 618 q 157 689 264 689 q 371 689 432 616 q 493 544 493 408 q 493 206 389 97 q 285 -12 130 -12 z m 263 319 q 335 319 380 357 q 382 389 382 419 q 382 449 378 479 q 374 509 362 540 q 350 571 325 588 q 300 605 257 605 q 214 605 184 564 q 154 522 154 452 q 154 383 183 351 q 212 319 263 319 z"}," ":{"x_min":0,"x_max":290,"ha":290,"o":""},"I":{"x_min":0,"x_max":330,"ha":330,"o":"m 108 0 l 108 720 l 222 720 l 222 0 z"},"H":{"x_min":0,"x_max":746,"ha":746,"o":"m 108 0 l 108 720 l 222 720 l 222 420 l 524 420 l 524 720 l 638 720 l 638 0 l 524 0 l 524 324 l 222 324 l 222 0 z"},"4":{"x_min":0,"x_max":565,"ha":565,"o":"m 29 155 l 28 219 l 293 661 q 307 684 332 684 l 444 670 l 444 239 l 530 239 l 516 155 l 444 155 l 444 0 l 337 0 l 337 155 z m 340 572 l 154 239 l 340 239 z"},"~":{"x_min":0,"x_max":653,"ha":653,"o":"m 115 248 l 75 274 q 144 363 218 363 q 252 363 337 341 q 422 319 453 319 q 484 319 538 356 l 578 330 q 509 241 439 241 q 410 241 322 263 q 233 285 200 285 q 168 285 115 248 z"},"D":{"x_min":0,"x_max":735,"ha":735,"o":"m 108 0 l 108 715 q 229 726 381 726 q 510 726 592 637 q 675 548 675 372 q 675 195 590 94 q 505 -6 330 -6 q 155 -6 108 0 z m 222 88 q 282 84 354 84 q 467 84 512 158 q 558 231 558 373 q 558 515 506 576 q 455 636 363 636 q 322 636 222 630 z"},"^":{"x_min":0,"x_max":518,"ha":518,"o":"m 207 720 l 309 720 l 493 348 l 406 324 l 258 608 l 112 324 l 25 348 z"},"0":{"x_min":0,"x_max":584,"ha":584,"o":"m 269 -12 q 177 -12 114 76 q 51 163 51 329 q 51 495 118 592 q 185 690 315 690 q 407 690 470 602 q 533 515 533 349 q 533 183 466 86 q 399 -12 269 -12 z m 287 72 q 425 72 425 354 q 425 487 390 546 q 354 606 297 606 q 159 606 159 324 q 159 191 194 132 q 230 72 287 72 z"},"F":{"x_min":0,"x_max":565,"ha":565,"o":"m 108 0 l 108 720 l 515 720 l 515 624 l 222 624 l 222 391 l 475 391 l 461 301 l 222 301 l 222 0 z"},"`":{"x_min":0,"x_max":257,"ha":257,"o":"m 223 614 l 10 692 q 10 712 30 745 q 49 778 67 778 q 85 778 150 732 q 216 687 247 656 z"},"k":{"x_min":0,"x_max":585,"ha":585,"o":"m 208 0 l 100 0 l 100 754 l 208 768 l 208 312 l 437 540 l 567 528 l 340 315 l 456 151 q 511 74 570 72 l 570 -5 q 562 -7 537 -7 q 436 -7 370 90 l 263 250 l 208 199 z"},"u":{"x_min":0,"x_max":618,"ha":618,"o":"m 513 541 l 513 125 q 513 89 522 79 q 530 69 560 69 l 564 6 q 539 -3 511 -3 q 450 -3 425 45 q 360 -12 262 -12 q 80 -12 80 184 l 80 527 l 188 541 l 188 204 q 188 72 293 72 q 365 72 405 114 l 405 527 z"},"]":{"x_min":0,"x_max":333,"ha":333,"o":"m 273 -90 l 64 -90 l 45 -12 l 171 -12 l 171 676 l 45 676 l 64 754 l 273 754 z"},"U":{"x_min":0,"x_max":705,"ha":705,"o":"m 90 217 l 90 720 l 204 720 l 204 235 q 204 163 240 120 q 275 78 349 78 q 501 78 501 234 l 501 720 l 615 720 l 615 252 q 615 131 546 60 q 477 -12 347 -12 q 217 -12 154 50 q 90 111 90 217 z"},"o":{"x_min":0,"x_max":584,"ha":584,"o":"m 310 546 q 408 546 472 478 q 536 409 536 276 q 536 143 470 66 q 405 -12 274 -12 q 176 -12 112 58 q 48 127 48 260 q 48 393 114 470 q 179 546 310 546 z m 296 462 q 221 462 192 411 q 162 360 162 260 q 162 159 196 116 q 229 72 296 72 q 363 72 392 124 q 422 176 422 276 q 422 377 388 420 q 355 462 296 462 z"},"N":{"x_min":0,"x_max":759,"ha":759,"o":"m 651 0 l 573 -9 q 552 -9 536 16 l 207 545 l 222 0 l 108 0 l 108 720 l 186 729 q 208 729 224 704 l 555 176 l 537 720 l 651 720 z"},"+":{"x_min":0,"x_max":546,"ha":546,"o":"m 227 516 l 317 516 l 317 349 l 486 349 l 472 265 l 317 265 l 317 108 l 227 94 l 227 265 l 64 265 l 64 349 l 227 349 z"},"G":{"x_min":0,"x_max":710,"ha":710,"o":"m 60 363 q 60 589 206 682 q 283 732 395 732 q 506 732 604 696 q 617 691 618 691 l 589 603 q 588 603 576 606 q 563 610 550 614 q 538 617 518 621 q 498 625 480 628 q 440 636 395 636 q 283 636 232 573 q 180 510 180 361 q 180 192 239 135 q 269 106 305 95 q 341 84 390 84 q 439 84 518 91 l 518 308 l 632 321 l 632 26 q 631 26 613 22 q 595 17 580 14 q 565 10 538 5 q 512 0 488 -4 q 428 -12 370 -12 q 221 -12 140 83 q 60 178 60 363 z"},"q":{"x_min":0,"x_max":604,"ha":604,"o":"m 504 499 l 504 -108 q 504 -131 516 -140 q 527 -148 551 -148 l 560 -213 q 525 -220 502 -220 q 480 -220 470 -218 q 459 -217 444 -210 q 430 -202 420 -189 q 396 -158 396 -91 l 396 51 q 377 27 340 8 q 303 -12 252 -12 q 166 -12 107 53 q 48 118 48 252 q 48 387 112 466 q 176 546 305 546 q 404 546 504 499 z m 396 207 l 396 449 q 360 462 312 462 q 231 462 196 414 q 162 367 162 262 q 162 157 192 114 q 222 72 278 72 q 335 72 366 112 q 396 152 396 207 z"},"d":{"x_min":0,"x_max":609,"ha":609,"o":"m 504 768 l 504 125 q 504 89 512 79 q 521 69 551 69 l 555 6 q 530 -3 502 -3 q 424 -3 409 68 q 356 -12 251 -12 q 161 -12 104 56 q 48 125 48 258 q 48 391 114 468 q 179 546 310 546 q 350 546 396 535 l 396 754 z m 396 207 l 396 449 q 362 462 307 462 q 226 462 194 410 q 162 358 162 258 q 162 157 192 114 q 222 72 278 72 q 334 72 365 112 q 396 152 396 207 z"},"1":{"x_min":0,"x_max":398,"ha":398,"o":"m 61 0 l 61 64 l 166 84 l 166 589 l 68 527 l 25 604 l 123 666 q 150 684 170 684 l 274 673 l 274 84 l 380 84 l 366 0 z"},"5":{"x_min":0,"x_max":518,"ha":518,"o":"m 45 36 l 70 114 q 90 105 136 94 q 181 84 220 84 q 359 84 359 213 q 359 282 326 313 q 293 344 234 344 q 174 344 134 330 l 76 390 l 116 678 l 445 678 l 445 594 l 215 594 l 194 424 q 232 428 254 428 q 354 428 414 371 q 473 314 473 210 q 473 107 407 54 q 341 0 228 0 q 179 0 124 12 q 68 24 45 36 z"}}}
